# Blender v2.79 (sub 0) OBJ File: ''
# www.blender.org
mtllib cracks.mtl
g Cube.002
v -0.202588 -0.970575 -0.278247
v -0.229271 -0.978160 -0.317399
v -0.122922 -0.978160 -0.389877
v -0.096239 -0.970575 -0.350725
v -0.485281 0.048239 -0.282949
v -0.511964 0.040654 -0.322101
v -0.149909 0.040654 -0.568849
v -0.123226 0.048239 -0.529697
v -0.331902 -0.461168 -0.288798
v -0.358585 -0.468753 -0.327950
v -0.084585 -0.468753 -0.514687
v -0.057902 -0.461168 -0.475535
v -0.166060 -0.970575 -0.303141
v -0.192743 -0.978160 -0.342293
v -0.299158 -0.296598 -0.338029
v -0.352331 -0.341118 -0.333889
v -0.237789 -0.461168 -0.352938
v -0.264472 -0.468753 -0.392090
v -0.134205 -0.970575 -0.324851
v -0.160888 -0.978160 -0.364003
v -0.264977 0.322626 -0.448418
v -0.291660 0.315041 -0.487570
v -0.155719 -0.461168 -0.408871
v -0.182402 -0.468753 -0.448023
vn 0.0890 -0.9874 0.1306
vn 0.6639 0.5061 -0.5505
vn -0.7795 -0.2413 0.5780
vn -0.6317 -0.1405 -0.7623
vn 0.8214 0.0449 -0.5685
vn 0.5561 0.1581 0.8160
vn 0.6317 0.1405 0.7623
vn 0.8279 -0.1915 -0.5272
vn -0.5561 -0.1581 -0.8160
vn -0.7939 -0.1896 0.5778
vn 0.5319 0.1438 0.8345
vn -0.3251 -0.0281 -0.9453
vn 0.2709 0.2153 -0.9382
vn 0.5468 0.1199 0.8286
vn -0.6126 -0.1165 -0.7818
vn -0.5046 0.2109 0.8372
usemtl Material
s off
f 19//1 20//1 3//1 4//1
f 21//2 8//2 7//2 22//2
f 9//3 5//3 6//3 10//3
f 24//4 22//4 7//4 11//4
f 11//5 7//5 8//5 12//5
f 23//6 19//6 4//6 12//6
f 21//7 23//7 12//7 8//7
f 3//8 11//8 12//8 4//8
f 20//9 24//9 11//9 3//9
f 1//10 9//10 10//10 2//10
f 2//9 10//9 18//9 14//9
f 5//11 9//11 17//11 15//11
f 9//6 1//6 13//6 17//6
f 10//12 6//12 16//12 18//12
f 5//13 15//13 16//13 6//13
f 1//1 2//1 14//1 13//1
f 14//9 18//9 24//9 20//9
f 15//14 17//14 23//14 21//14
f 17//6 13//6 19//6 23//6
f 18//15 16//15 22//15 24//15
f 15//16 21//16 22//16 16//16
f 13//1 14//1 20//1 19//1
g Cube.001
v 0.160763 -0.772395 -0.350935
v 0.172163 -0.778068 -0.384484
v 0.248025 -0.778068 -0.358708
v 0.236626 -0.772395 -0.325158
v 0.056583 -0.151854 -0.491245
v 0.067983 -0.157526 -0.524795
v 0.326250 -0.157526 -0.437041
v 0.314851 -0.151854 -0.403492
v 0.117256 -0.462125 -0.418173
v 0.128656 -0.467797 -0.451723
v 0.324111 -0.467797 -0.385312
v 0.312711 -0.462125 -0.351762
v 0.186820 -0.772395 -0.342081
v 0.198220 -0.778068 -0.375631
v 0.153728 -0.361798 -0.419502
v 0.133116 -0.389644 -0.448377
v 0.184391 -0.462125 -0.395363
v 0.195790 -0.467797 -0.428912
v 0.209543 -0.772395 -0.334360
v 0.220943 -0.778068 -0.367910
v 0.219943 0.015948 -0.439420
v 0.231343 0.010276 -0.472970
v 0.242935 -0.462125 -0.375471
v 0.254334 -0.467797 -0.409020
vn -0.0509 -0.9874 0.1497
vn 0.8348 0.5143 0.1967
vn -0.9296 -0.2464 -0.2742
vn 0.2115 -0.1364 -0.9678
vn 0.9482 0.0459 0.3144
vn -0.3177 0.1581 0.9349
vn -0.2115 0.1364 0.9678
vn 0.9180 -0.1955 0.3450
vn 0.3177 -0.1581 -0.9349
vn -0.9384 -0.1936 -0.2861
vn -0.3529 0.1405 0.9251
vn 0.6001 0.0000 -0.7999
vn 0.9294 0.2502 -0.2715
vn -0.3365 0.1112 0.9351
vn 0.2440 -0.1070 -0.9639
vn -0.9775 0.2085 0.0323
usemtl Material
s off
f 43//17 44//17 27//17 28//17
f 45//18 32//18 31//18 46//18
f 33//19 29//19 30//19 34//19
f 48//20 46//20 31//20 35//20
f 35//21 31//21 32//21 36//21
f 47//22 43//22 28//22 36//22
f 45//23 47//23 36//23 32//23
f 27//24 35//24 36//24 28//24
f 44//25 48//25 35//25 27//25
f 25//26 33//26 34//26 26//26
f 26//25 34//25 42//25 38//25
f 29//27 33//27 41//27 39//27
f 33//22 25//22 37//22 41//22
f 34//28 30//28 40//28 42//28
f 29//29 39//29 40//29 30//29
f 25//17 26//17 38//17 37//17
f 38//25 42//25 48//25 44//25
f 39//30 41//30 47//30 45//30
f 41//22 37//22 43//22 47//22
f 42//31 40//31 46//31 48//31
f 39//32 45//32 46//32 40//32
f 37//17 38//17 44//17 43//17
g Cube
v 0.076550 -0.884402 -0.109912
v 0.076550 -0.890437 -0.072214
v -0.075307 -0.890437 -0.072214
v -0.075307 -0.884402 -0.109912
v 0.349062 0.253333 0.072214
v 0.349062 0.247299 0.109912
v -0.167922 0.247299 0.109912
v -0.167922 0.253333 0.072214
v 0.195625 -0.315534 -0.018849
v 0.195625 -0.321569 0.018849
v -0.195625 -0.321569 0.018849
v -0.195625 -0.315534 -0.018849
v 0.024391 -0.884402 -0.109912
v 0.024391 -0.890437 -0.072214
v 0.130984 -0.131960 0.007272
v 0.185581 -0.179990 0.026359
v 0.061240 -0.315534 -0.018849
v 0.061240 -0.321569 0.018849
v -0.021094 -0.884402 -0.109912
v -0.021094 -0.890437 -0.072214
v 0.024302 0.558182 0.096143
v 0.024302 0.552147 0.133842
v -0.055950 -0.315534 -0.018849
v -0.055950 -0.321569 0.018849
vn 0.0000 -0.9874 -0.1581
vn -0.8458 0.5267 0.0843
vn 0.9663 -0.2541 -0.0407
vn 0.0627 -0.1457 0.9873
vn -0.9988 0.0474 0.0076
vn 0.0000 0.1581 -0.9874
vn -0.0627 0.1457 -0.9873
vn -0.9789 -0.2019 -0.0323
vn -0.0000 -0.1581 0.9874
vn 0.9793 -0.1999 -0.0320
vn 0.0205 0.1479 -0.9888
vn -0.1820 -0.0650 0.9811
vn -0.6322 0.1582 0.7585
vn 0.0100 0.1309 -0.9913
vn 0.0445 -0.1285 0.9907
vn 0.8011 0.2274 -0.5537
usemtl Material
s off
f 67//33 68//33 51//33 52//33
f 69//34 56//34 55//34 70//34
f 57//35 53//35 54//35 58//35
f 72//36 70//36 55//36 59//36
f 59//37 55//37 56//37 60//37
f 71//38 67//38 52//38 60//38
f 69//39 71//39 60//39 56//39
f 51//40 59//40 60//40 52//40
f 68//41 72//41 59//41 51//41
f 49//42 57//42 58//42 50//42
f 50//41 58//41 66//41 62//41
f 53//43 57//43 65//43 63//43
f 57//38 49//38 61//38 65//38
f 58//44 54//44 64//44 66//44
f 53//45 63//45 64//45 54//45
f 49//33 50//33 62//33 61//33
f 62//41 66//41 72//41 68//41
f 63//46 65//46 71//46 69//46
f 65//38 61//38 67//38 71//38
f 66//47 64//47 70//47 72//47
f 63//48 69//48 70//48 64//48
f 61//33 62//33 68//33 67//33
