# Blender v2.79 (sub 0) OBJ File: ''
# www.blender.org
mtllib wall001.mtl
o Cube
v 0.207196 0.070933 -7.044603
v 0.207196 0.070933 7.044603
v -0.207196 0.070933 7.044602
v -0.207196 0.070933 -7.044606
v 0.207196 8.543400 -7.044600
v 0.207196 8.543400 7.044608
v -0.207196 8.543400 7.044601
v -0.207196 8.543400 -7.044603
v 0.207196 7.115561 -7.044600
v 0.207196 7.115561 7.044607
v -0.207196 7.115561 7.044601
v -0.207196 7.115561 -7.044604
v 0.207196 2.781996 -7.044602
v 0.207196 2.781996 7.044605
v -0.207196 2.781996 7.044601
v -0.207196 2.781996 -7.044605
v 0.207196 0.070933 2.445523
v -0.207196 0.070933 2.445520
v 0.207196 8.543400 2.445526
v -0.207196 8.543400 2.445521
v -0.207196 7.115561 2.445521
v 0.207196 7.115561 2.445526
v 0.207196 2.781996 2.445524
v -0.207196 2.781996 2.445521
v -0.207196 0.070933 -2.413398
v -0.207196 8.543400 -2.413396
v -0.207196 7.115561 -2.413396
v -0.207196 2.781996 -2.413397
v 0.207196 0.070933 -2.413395
v 0.207196 8.543400 -2.413392
v 0.207196 7.115561 -2.413392
v 0.207196 2.781996 -2.413394
v 0.207196 2.587399 -7.044602
v 0.207196 2.587399 7.044605
v -0.207196 2.587399 7.044601
v -0.207196 2.587399 -7.044605
v -0.207196 2.587399 2.445521
v 0.207196 2.587399 2.445524
v 0.207196 2.587399 -2.413394
v -0.207196 2.587399 -2.413397
v 1.135337 2.781996 -2.413394
v 1.135337 2.781996 2.445524
v 1.135337 2.587399 2.445524
v 1.135337 2.587399 -2.413394
v -1.217986 2.781996 2.445521
v -1.217986 2.781996 -2.413397
v -1.217986 2.587399 2.445521
v -1.217986 2.587399 -2.413397
vt 0.445187 0.425209
vt 0.324526 0.423988
vt 0.328108 0.426514
vt 0.446430 0.427720
vt 0.439610 0.653857
vt 0.441017 0.651828
vt 0.317903 0.649691
vt 0.313961 0.651668
vt 0.440583 0.613998
vt 0.315802 0.611982
vt 0.319681 0.610816
vt 0.572194 0.614884
vt 0.572147 0.654105
vt 0.698159 0.656292
vt 0.697337 0.616901
vt 0.698580 0.494306
vt 0.697146 0.427759
vt 0.693444 0.430240
vt 0.694805 0.495492
vt 0.702115 0.658432
vt 0.701249 0.618208
vt 0.572332 0.499079
vt 0.694912 0.500603
vt 0.321238 0.494842
vt 0.324931 0.496005
vt 0.443452 0.496356
vt 0.443578 0.491188
vt 0.321477 0.489695
vt 0.325162 0.490958
vt 0.572338 0.493990
vt 0.698692 0.499519
vt 0.444744 0.497494
vt 0.444867 0.492426
vt 0.573621 0.492778
vt 0.573616 0.497969
vt 0.576691 0.495312
vt 0.576693 0.489877
vt 0.441960 0.612786
vt 0.573503 0.616145
vt 0.573464 0.656190
vt 0.573685 0.426509
vt 0.572415 0.429005
vt 0.447693 0.500088
vt 0.447807 0.495251
vt 0.440359 0.493634
vt 0.440494 0.488225
vt 0.569403 0.501611
vt 0.569411 0.496754
vn 0.0000 -1.0000 0.0000
vn 0.0000 1.0000 -0.0000
vn 1.0000 0.0000 0.0000
vn -0.0000 -0.0000 1.0000
vn -1.0000 -0.0000 -0.0000
vn 0.0000 0.0000 -1.0000
usemtl Material
s off
f 17/1/1 2/2/1 3/3/1 18/4/1
f 19/5/2 20/6/2 7/7/2 6/8/2
f 22/9/3 19/5/3 6/8/3 10/10/3
f 10/10/4 6/8/4 7/7/4 11/11/4
f 27/12/5 26/13/5 8/14/5 12/15/5
f 33/16/6 1/17/6 4/18/6 36/19/6
f 5/20/6 9/21/6 12/15/6 8/14/6
f 28/22/5 27/12/5 12/15/5 16/23/5
f 14/24/4 10/10/4 11/11/4 15/25/4
f 23/26/3 22/9/3 10/10/3 14/24/3
f 38/27/3 23/26/3 14/24/3 34/28/3
f 34/28/4 14/24/4 15/25/4 35/29/4
f 40/30/5 28/22/5 16/23/5 36/19/5
f 9/21/6 13/31/6 16/23/6 12/15/6
f 35/29/5 15/25/5 24/32/5 37/33/5
f 39/34/6 32/35/6 41/36/6 44/37/6
f 15/25/5 11/11/5 21/38/5 24/32/5
f 11/11/5 7/7/5 20/6/5 21/38/5
f 31/39/3 30/40/3 19/5/3 22/9/3
f 30/40/2 26/13/2 20/6/2 19/5/2
f 29/41/1 17/1/1 18/4/1 25/42/1
f 1/17/1 29/41/1 25/42/1 4/18/1
f 5/20/2 8/14/2 26/13/2 30/40/2
f 9/21/3 5/20/3 30/40/3 31/39/3
f 13/31/3 9/21/3 31/39/3 32/35/3
f 33/16/3 13/31/3 32/35/3 39/34/3
f 37/33/4 24/32/4 45/43/4 47/44/4
f 31/39/1 22/9/1 21/38/1 27/12/1
f 21/38/5 20/6/5 26/13/5 27/12/5
f 32/35/2 28/22/2 24/32/2 23/26/2
f 32/35/4 31/39/4 27/12/4 28/22/4
f 23/26/6 24/32/6 21/38/6 22/9/6
f 18/4/5 37/33/5 40/30/5 25/42/5
f 1/17/3 33/16/3 39/34/3 29/41/3
f 29/41/3 39/34/3 38/27/3 17/1/3
f 3/3/5 35/29/5 37/33/5 18/4/5
f 25/42/5 40/30/5 36/19/5 4/18/5
f 2/2/4 34/28/4 35/29/4 3/3/4
f 17/1/3 38/27/3 34/28/3 2/2/3
f 13/31/6 33/16/6 36/19/6 16/23/6
f 44/37/3 41/36/3 42/45/3 43/46/3
f 23/26/4 38/27/4 43/46/4 42/45/4
f 32/35/2 23/26/2 42/45/2 41/36/2
f 38/27/1 39/34/1 44/37/1 43/46/1
f 47/44/5 45/43/5 46/47/5 48/48/5
f 28/22/6 40/30/6 48/48/6 46/47/6
f 24/32/2 28/22/2 46/47/2 45/43/2
f 40/30/1 37/33/1 47/44/1 48/48/1
